<?xml version="1.0" encoding="utf-8"?>
<!-- Generator: Adobe Illustrator 24.1.0, SVG Export Plug-In . SVG Version: 6.00 Build 0)  -->
<svg version="1.1" id="Calque_1" xmlns="http://www.w3.org/2000/svg" xmlns:xlink="http://www.w3.org/1999/xlink" x="0px" y="0px"
	 viewBox="0 0 16 16" style="enable-background:new 0 0 16 16;" xml:space="preserve">
<style type="text/css">
	.st0{fill:#231F20;}
</style>
<g id="Layer_1">
</g>
<g id="cog_x5F_alt_x5F_32x32">
	<path class="st0" d="M16,9V7l-2.4-1c-0.1-0.2-0.1-0.4-0.2-0.5l1-2.4l-1.4-1.4l-2.4,1c-0.2-0.1-0.4-0.2-0.6-0.2L9,0H7L6,2.4
		C5.8,2.4,5.6,2.5,5.4,2.6L3,1.6L1.6,3.1l1,2.4C2.5,5.6,2.4,5.8,2.4,6L0,7v2l2.4,1c0.1,0.2,0.2,0.4,0.2,0.6l-1,2.4l1.4,1.4l2.4-1
		c0.2,0.1,0.4,0.2,0.6,0.2L7,16h2l1-2.4c0.2-0.1,0.4-0.1,0.6-0.2l2.4,1l1.4-1.4l-1-2.4c0.1-0.2,0.2-0.4,0.2-0.5L16,9z M8,11
		c-1.7,0-3-1.3-3-3s1.3-3,3-3s3,1.3,3,3S9.6,11,8,11z"/>
</g>
</svg>
