<?xml version="1.0" encoding="utf-8"?>
<!-- Generator: Adobe Illustrator 24.1.0, SVG Export Plug-In . SVG Version: 6.00 Build 0)  -->
<svg version="1.1" id="Calque_1" xmlns="http://www.w3.org/2000/svg" xmlns:xlink="http://www.w3.org/1999/xlink" x="0px" y="0px"
	 viewBox="0 0 512 512" style="enable-background:new 0 0 512 512;" xml:space="preserve">
<style type="text/css">
	.st0{fill:#B71918;}
	.st1{fill:#FFFFFF;}
</style>
<rect x="0" class="st0" width="512" height="512"/>
<path class="st1" d="M424.8,368.5c-13.7,0-25.8,5.5-35.5,13.6l-85.8-61.2c5.5-11.2,8.8-23.5,8.8-36.8c0-18.2-5.9-35-15.7-48.7
	L396.8,135c8.4,4.9,17.5,8.5,27.9,8.5c31.1,0,56.2-25.2,56.2-56.2c0-31.1-25.2-56.2-56.2-56.2c-31.1,0-56.2,25.2-56.2,56.2
	c0,10.4,3.5,19.6,8.5,27.9L276.7,215.5c-13.8-9.9-30.5-15.8-48.8-15.8c-32.2,0-59.9,18.3-74.1,44.9L86,222
	c-2.7-12.7-13.5-22.3-26.9-22.3c-15.6,0-28.1,12.6-28.1,28.1c0,15.5,12.5,28.1,28.1,28.1c7,0,13.4-2.9,18.3-7.2l67.3,22.5
	c-0.7,4.2-1.3,8.5-1.3,12.9c0,46.6,37.8,84.4,84.4,84.4c23.2,0,44.2-9.4,59.5-24.5l85.2,60.8c-2.4,6.3-4.1,12.9-4.1,20
	c0,31,25.2,56.2,56.2,56.2c31.1,0,56.2-25.2,56.2-56.2S455.8,368.5,424.8,368.5z"/>
</svg>
