<?xml version="1.0" encoding="utf-8"?>
<!-- Generator: Adobe Illustrator 24.1.0, SVG Export Plug-In . SVG Version: 6.00 Build 0)  -->
<svg version="1.1" id="Calque_1" xmlns="http://www.w3.org/2000/svg" xmlns:xlink="http://www.w3.org/1999/xlink" x="0px" y="0px"
	 viewBox="0 0 512 512" style="enable-background:new 0 0 512 512;" xml:space="preserve">
<style type="text/css">
	.st0{fill:#B71918;}
</style>
<path class="st0" d="M448,384c-15.6,0-29.3,6.2-40.4,15.4L310,329.8c6.2-12.8,10-26.8,10-41.8c0-20.7-6.8-39.8-17.9-55.4
	l114.1-114.2c9.5,5.5,19.9,9.6,31.8,9.6c35.4,0,64-28.6,64-64c0-35.4-28.6-64-64-64c-35.4,0-64,28.6-64,64c0,11.8,4,22.2,9.6,31.8
	L279.5,209.9C263.8,198.7,244.8,192,224,192c-36.6,0-68.1,20.8-84.3,51.1l-77-25.8C59.5,202.9,47.2,192,32,192
	c-17.8,0-32,14.3-32,32c0,17.7,14.2,32,32,32c8,0,15.2-3.2,20.9-8.2l76.6,25.5c-0.8,4.8-1.5,9.6-1.5,14.6c0,53,43,96,96,96
	c26.4,0,50.2-10.7,67.7-27.9l97,69.2c-2.8,7.1-4.6,14.7-4.6,22.8c0,35.3,28.6,64,64,64c35.4,0,64-28.7,64-64S483.4,384,448,384z"/>
</svg>
