<?xml version="1.0" encoding="UTF-8" standalone="no"?>
<svg
   xmlns:dc="http://purl.org/dc/elements/1.1/"
   xmlns:cc="http://creativecommons.org/ns#"
   xmlns:rdf="http://www.w3.org/1999/02/22-rdf-syntax-ns#"
   xmlns:svg="http://www.w3.org/2000/svg"
   xmlns="http://www.w3.org/2000/svg"
   xmlns:sodipodi="http://sodipodi.sourceforge.net/DTD/sodipodi-0.dtd"
   xmlns:inkscape="http://www.inkscape.org/namespaces/inkscape"
   version="1.1"
   id="svg8"
   inkscape:export-filename="/home/lelandaisb/workspaces/NabLab/plugins/fr.cea.nabla.rcp/splash.png"
   inkscape:version="1.0beta2 (2b71d25, 2019-12-03)"
   sodipodi:docname="splash.svg"
   x="0px"
   y="0px"
   viewBox="0 0 459 347"
   style="enable-background:new 0 0 459 347;"
   xml:space="preserve"><metadata
   id="metadata31"><rdf:RDF><cc:Work
       rdf:about=""><dc:format>image/svg+xml</dc:format><dc:type
         rdf:resource="http://purl.org/dc/dcmitype/StillImage" /></cc:Work></rdf:RDF></metadata><defs
   id="defs29" />
<style
   type="text/css"
   id="style10">
	.st0{display:none;fill:none;}
	.st1{fill:#B70E0B;}
	.st2{fill:#FFFFEB;}
	.st3{font-family:'Helvetica';}
	.st4{font-size:13.3333px;}
	.st5{fill:#FFFFFF;}
	.st6{font-family:'Helvetica-Bold';}
	.st7{font-size:63.9999px;}
	.st8{font-family:'Helvetica-BoldOblique';}
	.st9{font-size:21.3333px;}
</style>
<sodipodi:namedview
   bordercolor="#666666"
   borderopacity="1.0"
   id="base"
   inkscape:current-layer="g25"
   inkscape:cx="-156.49487"
   inkscape:cy="190.13301"
   inkscape:document-rotation="0"
   inkscape:document-units="px"
   inkscape:pageopacity="0.0"
   inkscape:pageshadow="2"
   inkscape:window-height="1075"
   inkscape:window-maximized="1"
   inkscape:window-width="1792"
   inkscape:window-x="0"
   inkscape:window-y="23"
   inkscape:zoom="0.95440522"
   pagecolor="#ffffff"
   showgrid="false"
   units="px">
	</sodipodi:namedview>
<g
   id="layer1"
   inkscape:groupmode="layer"
   inkscape:label="Calque 1">
	
		<rect
   id="rect2837"
   x="25.4"
   y="38.7"
   inkscape:export-xdpi="96"
   inkscape:export-ydpi="96"
   class="st0"
   width="296.2"
   height="203.1">
	</rect>
	<rect
   id="rect2839"
   x="25.4"
   y="38.7"
   inkscape:export-xdpi="96"
   inkscape:export-ydpi="96"
   class="st0"
   width="422"
   height="295">
	</rect>
	<rect
   id="rect2841"
   inkscape:export-xdpi="96"
   inkscape:export-ydpi="96"
   class="st1"
   width="459"
   height="347">
	</rect>
	<text
   transform="translate(252.5918,315.459)"
   class="st2 st3 st4"
   id="text16">© 2022 CEA - All rights reserved</text>
	<rect
   id="rect2865"
   y="332"
   inkscape:export-xdpi="96"
   inkscape:export-ydpi="96"
   class="st5"
   width="459"
   height="15">
	</rect>
	<g
   id="g25">
		<text
   transform="translate(75.7911,189.0625)"
   class="st5 st6 st7"
   id="text19">   <tspan
   style="font-style:normal;font-variant:normal;font-weight:bold;font-stretch:normal;font-family:Helvetica;-inkscape-font-specification:'Helvetica Bold'"
   id="tspan56">Modane</tspan> </text>
		<text
   class="st5 st8 st9"
   id="text21"
   x="338.81058"
   y="218.209"><tspan
     style="font-style:oblique;font-variant:normal;font-weight:bold;font-stretch:normal;font-family:Helvetica;-inkscape-font-specification:'Helvetica Bold Oblique'"
     id="tspan60">v1.4.5</tspan></text>
		<path
   class="st5"
   d="M110.8,177.5c-1.4,0-2.7,0.6-3.7,1.4l-8.8-6.3c0.6-1.2,0.9-2.4,0.9-3.8c0-1.9-0.6-3.6-1.6-5l10.3-10.3    c0.9,0.5,1.8,0.9,2.9,0.9c3.2,0,5.8-2.6,5.8-5.8s-2.6-5.8-5.8-5.8c-3.2,0-5.8,2.6-5.8,5.8c0,1.1,0.4,2,0.9,2.9l-10.3,10.3    c-1.4-1-3.1-1.6-5-1.6c-3.3,0-6.2,1.9-7.6,4.6l-7-2.3c-0.3-1.3-1.4-2.3-2.8-2.3c-1.6,0-2.9,1.3-2.9,2.9c0,1.6,1.3,2.9,2.9,2.9    c0.7,0,1.4-0.3,1.9-0.7l6.9,2.3c-0.1,0.4-0.1,0.9-0.1,1.3c0,4.8,3.9,8.7,8.7,8.7c2.4,0,4.5-1,6.1-2.5l8.8,6.3    c-0.2,0.6-0.4,1.3-0.4,2.1c0,3.2,2.6,5.8,5.8,5.8c3.2,0,5.8-2.6,5.8-5.8C116.6,180.1,114,177.5,110.8,177.5z"
   id="path23" />
	</g>
</g>
</svg>
